<svg width="133" height="139" viewBox="0 0 133 139" fill="none" xmlns="http://www.w3.org/2000/svg">
<rect width="133" height="139" rx="50" fill="#6120B5"/>
<path d="M19.4936 19.2036C19.238 19.3235 18.8196 19.6593 18.564 19.9471C18.0991 20.4747 18.0991 20.8584 18.0294 43.9774L17.9829 67.4801L19.6563 65.8733C27.2332 58.6306 36.9483 56.0405 46.5472 58.6786L48.6855 59.2781H71.6253C97.2147 59.2781 95.5645 59.1822 96.7033 60.9329C97.3541 61.9402 97.3773 62.9954 96.7731 64.0026C95.7504 65.7294 97.0752 65.6095 76.9942 65.7534L58.9584 65.8733L60.7481 68.0796C61.7242 69.2788 63.0258 71.1973 63.6301 72.3245L64.7457 74.387H79.9227H95.0764L95.8666 74.9386C96.3779 75.2983 96.7731 75.8499 97.0055 76.4974C97.3076 77.3848 97.3076 77.6246 97.0055 78.512C96.7731 79.1595 96.3779 79.7111 95.8666 80.0708L95.0764 80.6224H80.8988H66.7445L66.8839 81.246C67.6044 84.1718 67.4417 90.1914 66.5585 93.5969C66.3029 94.5801 66.0937 95.5154 66.0937 95.6833C66.0937 95.9231 70.6956 95.9711 89.1962 95.9231C101.91 95.8752 112.368 95.7792 112.461 95.6833C112.554 95.5874 112.392 95.1797 112.113 94.796C111.23 93.4769 110.067 90.623 109.696 88.7284C109.37 87.0976 109.324 83.1166 109.324 54.05C109.324 30.6432 109.254 21.0023 109.068 20.4507C108.533 18.8679 111.88 18.9878 63.723 19.0118C39.6444 19.0118 19.7493 19.1077 19.4936 19.2036ZM51.4978 30.979C52.962 31.5306 54.9143 33.1853 55.7743 34.6003C57.7731 37.8859 57.7731 43.2579 55.7743 46.5195C53.8917 49.6132 50.0335 51.364 46.5705 50.6925C43.4096 50.0929 41.0621 48.2942 39.8071 45.5123C37.4596 40.3321 39.226 33.7609 43.5955 31.4346C45.943 30.1636 48.9876 29.9957 51.4978 30.979ZM95.3785 30.6192C97.052 31.5066 97.5865 33.8329 96.4244 35.2478C95.425 36.4709 95.0764 36.5189 88.1038 36.4469L81.689 36.375L80.9918 35.6795C80.1086 34.8161 79.76 33.641 80.0621 32.6098C80.2945 31.7704 81.0848 30.7871 81.782 30.4993C82.0377 30.3794 85.0591 30.2835 88.4757 30.2835C93.5424 30.2595 94.8207 30.3314 95.3785 30.6192ZM36.437 31.0029L37.0645 31.5066L36.9948 38.8692L36.9251 46.2077L36.2278 47.6467C35.4376 49.2775 34.5777 49.973 32.6486 50.5725C31.5794 50.8843 31.0914 50.9083 29.9293 50.7164C27.0473 50.2128 25.4203 48.3422 25.2344 45.2724C25.1182 43.114 25.3971 42.7783 27.5353 42.5864C28.8369 42.4425 29.0693 42.4905 29.4412 42.9222C29.6736 43.186 29.9293 43.8575 29.999 44.3851C30.1617 45.6322 30.58 46.0159 31.347 45.6562L31.9281 45.3684V38.4375V31.4826L32.5324 31.0029C33.4156 30.2835 35.5771 30.3075 36.437 31.0029ZM69.5568 31.0749C71.0907 31.6505 72.0204 32.4898 72.6944 33.9048C73.4614 35.5116 73.5079 37.2384 72.7874 38.7732L72.2761 39.8524L72.7641 40.38C74.8327 42.7303 74.4376 46.8313 71.9739 48.9417C70.4632 50.2368 69.0919 50.5006 64.2111 50.5246C60.26 50.5246 59.8184 50.4766 59.3768 50.0689C58.8887 49.6132 58.8887 49.4693 58.8887 40.5479V31.4826L59.5395 30.979C60.1438 30.4753 60.3065 30.4514 64.3506 30.5713C67.4417 30.6432 68.7898 30.7871 69.5568 31.0749ZM95.3785 45.0086C96.4942 45.6082 97.0055 46.4955 97.0055 47.8386C97.0055 48.8938 96.9125 49.1096 96.099 49.949L95.1926 50.8843H88.5687H81.9215L81.108 50.1409C80.1551 49.2775 79.76 48.0784 80.0389 47.0232C80.2945 46.1118 80.6432 45.6562 81.5496 45.0806C82.1771 44.6969 82.8511 44.6489 88.4757 44.6489C93.5192 44.6489 94.8207 44.7208 95.3785 45.0086Z" fill="white"/>
<path d="M46.2219 35.6315C44.6182 36.375 44.0139 37.7659 44.0139 40.6918C44.0139 42.2746 44.1069 42.8502 44.5485 43.7136C46.2219 46.9751 50.94 46.3756 51.9162 42.7782C52.6832 39.8524 51.7535 36.6867 49.7779 35.6315C48.9877 35.1998 47.1516 35.2238 46.2219 35.6315Z" fill="white"/>
<path d="M64.002 36.5908V37.694H65.5824C67.5347 37.694 68.1158 37.5261 68.2552 36.9745C68.4876 36.0632 67.9298 35.7514 65.9078 35.6075L64.002 35.4636V36.5908Z" fill="white"/>
<path d="M64.002 44.1932V45.6801L66.117 45.5362C67.2791 45.4643 68.3714 45.2724 68.5574 45.1045C68.7666 44.9127 68.8828 44.481 68.8363 43.9534C68.7433 42.9221 68.3947 42.7782 65.8148 42.7543L64.002 42.7303V44.1932Z" fill="white"/>
<path d="M112.345 63.9067C112.345 89.5678 112.299 88.6805 113.67 91.5583C113.995 92.2778 114.762 93.4769 115.343 94.2444C116.366 95.5154 116.505 95.6114 117.528 95.6833C119.922 95.8512 122.967 94.8199 124.384 93.333C124.803 92.9014 125.407 92.014 125.733 91.3665C126.964 88.8483 126.988 88.6565 126.988 65.9692V44.9846L126.383 43.7136C125.64 42.1787 124.106 40.9316 122.502 40.5719C121.898 40.452 119.341 40.3321 116.877 40.3321H112.345V63.9067Z" fill="white"/>
<path d="M35.1122 61.0528C27.0937 62.5397 20.3536 67.6479 16.7278 75.0345C12.8929 82.8528 13.1951 92.3737 17.4948 99.9761L18.2153 101.223L13.3578 106.355C8.05861 111.943 7.87267 112.255 8.03536 114.677C8.26778 117.939 11.1033 119.858 14.3804 118.97C15.1474 118.778 16.1236 117.891 20.2141 113.574L25.1414 108.418L27.1402 109.521C37.111 115.085 49.0806 113.262 57.1456 104.964C64.6527 97.1942 66.5818 85.3469 61.9102 75.4422C58.6331 68.4873 52.7064 63.451 45.4781 61.5325C42.6426 60.765 37.9012 60.5492 35.1122 61.0528ZM43.4328 69.2308C46.6635 70.0942 50.4054 72.4684 52.3345 74.8427C57.1921 80.7903 58.052 88.2728 54.6354 95.1317C53.8917 96.6186 53.1712 97.5779 51.4513 99.3526C49.5687 101.295 48.9179 101.799 47.0353 102.758C44.1766 104.197 42.2242 104.677 39.1331 104.653C31.6957 104.629 25.2576 99.9042 22.7707 92.6855C21.446 88.8483 21.446 84.9632 22.7475 80.9581C24.7696 74.7227 30.0687 70.0942 36.5765 68.8471C38.0639 68.5833 41.7826 68.7751 43.4328 69.2308Z" fill="white"/>
</svg>
