<svg width="399" height="77" viewBox="0 0 399 77" fill="none" xmlns="http://www.w3.org/2000/svg">
<g filter="url(#filter0_d_19_357)">
<path d="M17.7314 4.01562V68H4.5918V4.01562H17.7314ZM41.6816 30.6025V68H29.0254V20.4512H40.8906L41.6816 30.6025ZM39.8359 42.5557H36.4082C36.4082 39.04 36.8623 35.876 37.7705 33.0635C38.6787 30.2217 39.9531 27.8047 41.5938 25.8125C43.2344 23.791 45.1826 22.2529 47.4385 21.1982C49.7236 20.1143 52.2725 19.5723 55.085 19.5723C57.3115 19.5723 59.3477 19.8945 61.1934 20.5391C63.0391 21.1836 64.6211 22.209 65.9395 23.6152C67.2871 25.0215 68.3125 26.8818 69.0156 29.1963C69.748 31.5107 70.1143 34.3379 70.1143 37.6777V68H57.3701V37.6338C57.3701 35.5244 57.0771 33.8838 56.4912 32.7119C55.9053 31.54 55.041 30.7197 53.8984 30.251C52.7852 29.7529 51.4082 29.5039 49.7676 29.5039C48.0684 29.5039 46.5889 29.8408 45.3291 30.5146C44.0986 31.1885 43.0732 32.126 42.2529 33.3271C41.4619 34.499 40.8613 35.876 40.4512 37.458C40.041 39.04 39.8359 40.7393 39.8359 42.5557ZM105.446 54.8604C105.446 53.9521 105.183 53.1318 104.655 52.3994C104.128 51.667 103.146 50.9932 101.711 50.3779C100.305 49.7334 98.2686 49.1475 95.6025 48.6201C93.2002 48.0928 90.959 47.4336 88.8789 46.6426C86.8281 45.8223 85.041 44.8408 83.5176 43.6982C82.0234 42.5557 80.8516 41.208 80.002 39.6553C79.1523 38.0732 78.7275 36.2715 78.7275 34.25C78.7275 32.2578 79.1523 30.3828 80.002 28.625C80.8809 26.8672 82.126 25.3145 83.7373 23.9668C85.3779 22.5898 87.3701 21.5205 89.7139 20.7588C92.0869 19.9678 94.7529 19.5723 97.7119 19.5723C101.843 19.5723 105.388 20.2314 108.347 21.5498C111.335 22.8682 113.62 24.6846 115.202 26.999C116.813 29.2842 117.619 31.8916 117.619 34.8213H104.963C104.963 33.5908 104.699 32.4922 104.172 31.5254C103.674 30.5293 102.883 29.7529 101.799 29.1963C100.744 28.6104 99.3672 28.3174 97.668 28.3174C96.2617 28.3174 95.0459 28.5664 94.0205 29.0645C92.9951 29.5332 92.2041 30.1777 91.6475 30.998C91.1201 31.7891 90.8564 32.668 90.8564 33.6348C90.8564 34.3672 91.0029 35.0264 91.2959 35.6123C91.6182 36.1689 92.1309 36.6816 92.834 37.1504C93.5371 37.6191 94.4453 38.0586 95.5586 38.4688C96.7012 38.8496 98.1074 39.2012 99.7773 39.5234C103.205 40.2266 106.267 41.1494 108.962 42.292C111.657 43.4053 113.796 44.9287 115.378 46.8623C116.96 48.7666 117.751 51.2715 117.751 54.377C117.751 56.4863 117.282 58.4199 116.345 60.1777C115.407 61.9355 114.06 63.4736 112.302 64.792C110.544 66.0811 108.435 67.0918 105.974 67.8242C103.542 68.5273 100.803 68.8789 97.7559 68.8789C93.332 68.8789 89.582 68.0879 86.5059 66.5059C83.459 64.9238 81.1445 62.917 79.5625 60.4854C78.0098 58.0244 77.2334 55.5049 77.2334 52.9268H89.2305C89.2891 54.6553 89.7285 56.0469 90.5488 57.1016C91.3984 58.1562 92.4678 58.918 93.7568 59.3867C95.0752 59.8555 96.4961 60.0898 98.0195 60.0898C99.6602 60.0898 101.022 59.8701 102.106 59.4307C103.19 58.9619 104.011 58.3467 104.567 57.585C105.153 56.7939 105.446 55.8857 105.446 54.8604ZM149.26 20.4512V29.416H121.574V20.4512H149.26ZM128.43 8.71777H141.086V53.6738C141.086 55.0508 141.262 56.1055 141.613 56.8379C141.994 57.5703 142.551 58.083 143.283 58.376C144.016 58.6396 144.938 58.7715 146.052 58.7715C146.843 58.7715 147.546 58.7422 148.161 58.6836C148.806 58.5957 149.348 58.5078 149.787 58.4199L149.831 67.7363C148.747 68.0879 147.575 68.3662 146.315 68.5713C145.056 68.7764 143.664 68.8789 142.141 68.8789C139.357 68.8789 136.926 68.4248 134.846 67.5166C132.795 66.5791 131.213 65.085 130.1 63.0342C128.986 60.9834 128.43 58.2881 128.43 54.9482V8.71777ZM182.131 57.2773V36.0957C182.131 34.5723 181.882 33.2686 181.384 32.1846C180.886 31.0713 180.109 30.207 179.055 29.5918C178.029 28.9766 176.696 28.6689 175.056 28.6689C173.649 28.6689 172.434 28.918 171.408 29.416C170.383 29.8848 169.592 30.5732 169.035 31.4814C168.479 32.3604 168.2 33.4004 168.2 34.6016H155.544C155.544 32.5801 156.013 30.6611 156.95 28.8447C157.888 27.0283 159.25 25.4316 161.037 24.0547C162.824 22.6484 164.948 21.5498 167.409 20.7588C169.899 19.9678 172.683 19.5723 175.759 19.5723C179.45 19.5723 182.731 20.1875 185.603 21.418C188.474 22.6484 190.729 24.4941 192.37 26.9551C194.04 29.416 194.875 32.4922 194.875 36.1836V56.5303C194.875 59.1377 195.036 61.2764 195.358 62.9463C195.681 64.5869 196.149 66.0225 196.765 67.2529V68H183.977C183.361 66.7109 182.893 65.0996 182.57 63.166C182.277 61.2031 182.131 59.2402 182.131 57.2773ZM183.801 39.04L183.889 46.2031H176.813C175.144 46.2031 173.693 46.3936 172.463 46.7744C171.232 47.1553 170.222 47.6973 169.431 48.4004C168.64 49.0742 168.054 49.8652 167.673 50.7734C167.321 51.6816 167.146 52.6777 167.146 53.7617C167.146 54.8457 167.395 55.8271 167.893 56.7061C168.391 57.5557 169.108 58.2295 170.046 58.7275C170.983 59.1963 172.082 59.4307 173.342 59.4307C175.246 59.4307 176.901 59.0498 178.308 58.2881C179.714 57.5264 180.798 56.5889 181.56 55.4756C182.351 54.3623 182.761 53.3076 182.79 52.3115L186.13 57.6729C185.661 58.874 185.017 60.1191 184.196 61.4082C183.405 62.6973 182.395 63.9131 181.164 65.0557C179.934 66.1689 178.454 67.0918 176.726 67.8242C174.997 68.5273 172.946 68.8789 170.573 68.8789C167.556 68.8789 164.816 68.2783 162.355 67.0771C159.924 65.8467 157.99 64.1621 156.555 62.0234C155.148 59.8555 154.445 57.3945 154.445 54.6406C154.445 52.1504 154.914 49.9385 155.852 48.0049C156.789 46.0713 158.166 44.4453 159.982 43.127C161.828 41.7793 164.128 40.7686 166.882 40.0947C169.636 39.3916 172.829 39.04 176.462 39.04H183.801ZM231.306 48.3564V4.01562H244.445V48.3564C244.445 52.6338 243.508 56.3105 241.633 59.3867C239.758 62.4336 237.194 64.7773 233.942 66.418C230.72 68.0586 227.087 68.8789 223.044 68.8789C218.854 68.8789 215.148 68.1758 211.926 66.7695C208.703 65.3633 206.169 63.21 204.323 60.3096C202.478 57.3799 201.555 53.6738 201.555 49.1914H214.782C214.782 51.5352 215.104 53.3955 215.749 54.7725C216.423 56.1494 217.375 57.1309 218.605 57.7168C219.836 58.3027 221.315 58.5957 223.044 58.5957C224.714 58.5957 226.164 58.2002 227.395 57.4092C228.625 56.6182 229.577 55.4609 230.251 53.9375C230.954 52.4141 231.306 50.5537 231.306 48.3564ZM252.883 44.709V43.7861C252.883 40.2998 253.381 37.0918 254.377 34.1621C255.373 31.2031 256.823 28.6396 258.728 26.4717C260.632 24.3037 262.976 22.6191 265.759 21.418C268.542 20.1875 271.735 19.5723 275.339 19.5723C278.942 19.5723 282.15 20.1875 284.963 21.418C287.775 22.6191 290.134 24.3037 292.038 26.4717C293.972 28.6396 295.437 31.2031 296.433 34.1621C297.429 37.0918 297.927 40.2998 297.927 43.7861V44.709C297.927 48.166 297.429 51.374 296.433 54.333C295.437 57.2627 293.972 59.8262 292.038 62.0234C290.134 64.1914 287.79 65.876 285.007 67.0771C282.224 68.2783 279.03 68.8789 275.427 68.8789C271.823 68.8789 268.615 68.2783 265.803 67.0771C263.02 65.876 260.661 64.1914 258.728 62.0234C256.823 59.8262 255.373 57.2627 254.377 54.333C253.381 51.374 252.883 48.166 252.883 44.709ZM265.539 43.7861V44.709C265.539 46.7012 265.715 48.5615 266.066 50.29C266.418 52.0186 266.975 53.542 267.736 54.8604C268.527 56.1494 269.553 57.1602 270.812 57.8926C272.072 58.625 273.61 58.9912 275.427 58.9912C277.185 58.9912 278.693 58.625 279.953 57.8926C281.213 57.1602 282.224 56.1494 282.985 54.8604C283.747 53.542 284.304 52.0186 284.655 50.29C285.036 48.5615 285.227 46.7012 285.227 44.709V43.7861C285.227 41.8525 285.036 40.0361 284.655 38.3369C284.304 36.6084 283.732 35.085 282.941 33.7666C282.18 32.4189 281.169 31.3643 279.909 30.6025C278.649 29.8408 277.126 29.46 275.339 29.46C273.552 29.46 272.028 29.8408 270.769 30.6025C269.538 31.3643 268.527 32.4189 267.736 33.7666C266.975 35.085 266.418 36.6084 266.066 38.3369C265.715 40.0361 265.539 41.8525 265.539 43.7861ZM305.705 0.5H318.361V57.1016L317.087 68H305.705V0.5ZM348.464 43.7422V44.665C348.464 48.21 348.083 51.4619 347.321 54.4209C346.589 57.3799 345.446 59.9434 343.894 62.1113C342.341 64.25 340.407 65.9199 338.093 67.1211C335.808 68.293 333.112 68.8789 330.007 68.8789C327.106 68.8789 324.587 68.293 322.448 67.1211C320.339 65.9492 318.566 64.2939 317.131 62.1553C315.695 60.0166 314.538 57.5117 313.659 54.6406C312.78 51.7695 312.121 48.6348 311.682 45.2363V43.2148C312.121 39.8164 312.78 36.6816 313.659 33.8105C314.538 30.9395 315.695 28.4346 317.131 26.2959C318.566 24.1572 320.339 22.502 322.448 21.3301C324.558 20.1582 327.048 19.5723 329.919 19.5723C333.054 19.5723 335.778 20.1729 338.093 21.374C340.437 22.5459 342.37 24.2158 343.894 26.3838C345.446 28.5225 346.589 31.0713 347.321 34.0303C348.083 36.96 348.464 40.1973 348.464 43.7422ZM335.808 44.665V43.7422C335.808 41.8086 335.661 39.9922 335.368 38.293C335.104 36.5645 334.636 35.0557 333.962 33.7666C333.288 32.4482 332.365 31.4082 331.193 30.6465C330.051 29.8848 328.571 29.5039 326.755 29.5039C325.026 29.5039 323.562 29.7969 322.36 30.3828C321.159 30.9688 320.163 31.7891 319.372 32.8438C318.61 33.8984 318.039 35.1582 317.658 36.623C317.277 38.0586 317.043 39.6406 316.955 41.3691V47.126C317.043 49.4404 317.424 51.4912 318.098 53.2783C318.801 55.0361 319.855 56.4277 321.262 57.4531C322.697 58.4492 324.558 58.9473 326.843 58.9473C328.63 58.9473 330.109 58.5957 331.281 57.8926C332.453 57.1895 333.361 56.1934 334.006 54.9043C334.68 53.6152 335.148 52.1064 335.412 50.3779C335.676 48.6201 335.808 46.7158 335.808 44.665ZM382.038 54.8604C382.038 53.9521 381.774 53.1318 381.247 52.3994C380.72 51.667 379.738 50.9932 378.303 50.3779C376.896 49.7334 374.86 49.1475 372.194 48.6201C369.792 48.0928 367.551 47.4336 365.471 46.6426C363.42 45.8223 361.633 44.8408 360.109 43.6982C358.615 42.5557 357.443 41.208 356.594 39.6553C355.744 38.0732 355.319 36.2715 355.319 34.25C355.319 32.2578 355.744 30.3828 356.594 28.625C357.473 26.8672 358.718 25.3145 360.329 23.9668C361.97 22.5898 363.962 21.5205 366.306 20.7588C368.679 19.9678 371.345 19.5723 374.304 19.5723C378.435 19.5723 381.979 20.2314 384.938 21.5498C387.927 22.8682 390.212 24.6846 391.794 26.999C393.405 29.2842 394.211 31.8916 394.211 34.8213H381.555C381.555 33.5908 381.291 32.4922 380.764 31.5254C380.266 30.5293 379.475 29.7529 378.391 29.1963C377.336 28.6104 375.959 28.3174 374.26 28.3174C372.854 28.3174 371.638 28.5664 370.612 29.0645C369.587 29.5332 368.796 30.1777 368.239 30.998C367.712 31.7891 367.448 32.668 367.448 33.6348C367.448 34.3672 367.595 35.0264 367.888 35.6123C368.21 36.1689 368.723 36.6816 369.426 37.1504C370.129 37.6191 371.037 38.0586 372.15 38.4688C373.293 38.8496 374.699 39.2012 376.369 39.5234C379.797 40.2266 382.858 41.1494 385.554 42.292C388.249 43.4053 390.388 44.9287 391.97 46.8623C393.552 48.7666 394.343 51.2715 394.343 54.377C394.343 56.4863 393.874 58.4199 392.937 60.1777C391.999 61.9355 390.651 63.4736 388.894 64.792C387.136 66.0811 385.026 67.0918 382.565 67.8242C380.134 68.5273 377.395 68.8789 374.348 68.8789C369.924 68.8789 366.174 68.0879 363.098 66.5059C360.051 64.9238 357.736 62.917 356.154 60.4854C354.602 58.0244 353.825 55.5049 353.825 52.9268H365.822C365.881 54.6553 366.32 56.0469 367.141 57.1016C367.99 58.1562 369.06 58.918 370.349 59.3867C371.667 59.8555 373.088 60.0898 374.611 60.0898C376.252 60.0898 377.614 59.8701 378.698 59.4307C379.782 58.9619 380.603 58.3467 381.159 57.585C381.745 56.7939 382.038 55.8857 382.038 54.8604Z" fill="#6F38C5"/>
<path d="M17.7314 4.01562H18.7314V3.01562H17.7314V4.01562ZM17.7314 68V69H18.7314V68H17.7314ZM4.5918 68H3.5918V69H4.5918V68ZM4.5918 4.01562V3.01562H3.5918V4.01562H4.5918ZM16.7314 4.01562V68H18.7314V4.01562H16.7314ZM17.7314 67H4.5918V69H17.7314V67ZM5.5918 68V4.01562H3.5918V68H5.5918ZM4.5918 5.01562H17.7314V3.01562H4.5918V5.01562ZM41.6816 30.6025H42.6816V30.5636L42.6786 30.5249L41.6816 30.6025ZM41.6816 68V69H42.6816V68H41.6816ZM29.0254 68H28.0254V69H29.0254V68ZM29.0254 20.4512V19.4512H28.0254V20.4512H29.0254ZM40.8906 20.4512L41.8876 20.3735L41.8157 19.4512H40.8906V20.4512ZM39.8359 42.5557V43.5557H40.8359V42.5557H39.8359ZM36.4082 42.5557H35.4082V43.5557H36.4082V42.5557ZM37.7705 33.0635L38.7221 33.3708L38.723 33.3679L37.7705 33.0635ZM41.5938 25.8125L42.3657 26.4482L42.3702 26.4427L41.5938 25.8125ZM47.4385 21.1982L47.862 22.1041L47.8671 22.1017L47.4385 21.1982ZM65.9395 23.6152L65.2099 24.2992L65.2175 24.3071L65.9395 23.6152ZM69.0156 29.1963L68.0587 29.487L68.0622 29.498L69.0156 29.1963ZM70.1143 68V69H71.1143V68H70.1143ZM57.3701 68H56.3701V69H57.3701V68ZM53.8984 30.251L53.4901 31.1638L53.5044 31.1702L53.5189 31.1761L53.8984 30.251ZM45.3291 30.5146L44.8574 29.6328L44.8488 29.6376L45.3291 30.5146ZM42.2529 33.3271L41.4271 32.7632L41.4241 32.7677L42.2529 33.3271ZM40.6816 30.6025V68H42.6816V30.6025H40.6816ZM41.6816 67H29.0254V69H41.6816V67ZM30.0254 68V20.4512H28.0254V68H30.0254ZM29.0254 21.4512H40.8906V19.4512H29.0254V21.4512ZM39.8936 20.5289L40.6847 30.6802L42.6786 30.5249L41.8876 20.3735L39.8936 20.5289ZM39.8359 41.5557H36.4082V43.5557H39.8359V41.5557ZM37.4082 42.5557C37.4082 39.1252 37.8514 36.0672 38.7221 33.3708L36.8189 32.7562C35.8732 35.6847 35.4082 38.9549 35.4082 42.5557H37.4082ZM38.723 33.3679C39.5986 30.6284 40.8173 28.3284 42.3657 26.4482L40.8218 25.1768C39.089 27.281 37.7589 29.815 36.818 32.7591L38.723 33.3679ZM42.3702 26.4427C43.92 24.5331 45.7494 23.0918 47.862 22.1041L47.0149 20.2924C44.6159 21.414 42.5487 23.0489 40.8173 25.1823L42.3702 26.4427ZM47.8671 22.1017C50.0039 21.0881 52.404 20.5723 55.085 20.5723V18.5723C52.141 18.5723 49.4433 19.1404 47.0099 20.2947L47.8671 22.1017ZM55.085 20.5723C57.2146 20.5723 59.1376 20.8804 60.8637 21.4832L61.523 19.595C59.5578 18.9087 57.4084 18.5723 55.085 18.5723V20.5723ZM60.8637 21.4832C62.5593 22.0753 64.0035 23.0124 65.2099 24.2992L66.669 22.9313C65.2387 21.4056 63.5188 20.2919 61.523 19.595L60.8637 21.4832ZM65.2175 24.3071C66.4333 25.5758 67.3905 27.2872 68.0588 29.487L69.9724 28.9056C69.2345 26.4765 68.1409 24.4672 66.6614 22.9233L65.2175 24.3071ZM68.0622 29.498C68.7546 31.6859 69.1143 34.4047 69.1143 37.6777H71.1143C71.1143 34.2711 70.7415 31.3356 69.969 28.8946L68.0622 29.498ZM69.1143 37.6777V68H71.1143V37.6777H69.1143ZM70.1143 67H57.3701V69H70.1143V67ZM58.3701 68V37.6338H56.3701V68H58.3701ZM58.3701 37.6338C58.3701 35.4534 58.0708 33.6351 57.3856 32.2647L55.5968 33.1591C56.0835 34.1325 56.3701 35.5954 56.3701 37.6338H58.3701ZM57.3856 32.2647C56.6987 30.8908 55.6587 29.8923 54.278 29.3258L53.5189 31.1761C54.4233 31.5472 55.1119 32.1893 55.5968 33.1591L57.3856 32.2647ZM54.3068 29.3382C53.0288 28.7664 51.503 28.5039 49.7676 28.5039V30.5039C51.3134 30.5039 52.5415 30.7394 53.4901 31.1638L54.3068 29.3382ZM49.7676 28.5039C47.9349 28.5039 46.2874 28.868 44.8574 29.6329L45.8008 31.3964C46.8903 30.8137 48.2018 30.5039 49.7676 30.5039V28.5039ZM44.8488 29.6376C43.4749 30.3899 42.3329 31.4368 41.4271 32.7632L43.0787 33.8911C43.8135 32.8151 44.7223 31.987 45.8094 31.3917L44.8488 29.6376ZM41.4241 32.7677C40.5604 34.0472 39.9175 35.5319 39.4832 37.207L41.4192 37.709C41.8052 36.2201 42.3634 34.9509 43.0818 33.8866L41.4241 32.7677ZM39.4832 37.207C39.0496 38.8796 38.8359 40.6639 38.8359 42.5557H40.8359C40.8359 40.8146 41.0325 39.2005 41.4192 37.709L39.4832 37.207ZM101.711 50.3779L101.294 51.287L101.306 51.2922L101.317 51.2971L101.711 50.3779ZM95.6025 48.6201L95.3881 49.5969L95.3983 49.5991L95.4085 49.6011L95.6025 48.6201ZM88.8789 46.6426L88.5075 47.5711L88.5155 47.5742L88.5235 47.5773L88.8789 46.6426ZM83.5176 43.6982L82.9101 44.4926L82.9176 44.4982L83.5176 43.6982ZM80.002 39.6553L79.1209 40.1284L79.1247 40.1353L80.002 39.6553ZM80.002 28.625L79.1074 28.1777L79.1016 28.1898L80.002 28.625ZM83.7373 23.9668L84.3789 24.7339L84.3802 24.7328L83.7373 23.9668ZM89.7139 20.7588L90.023 21.7099L90.0301 21.7075L89.7139 20.7588ZM108.347 21.5498L107.94 22.4632L107.943 22.4647L108.347 21.5498ZM115.202 26.999L114.377 27.5633L114.381 27.5693L114.385 27.5753L115.202 26.999ZM117.619 34.8213V35.8213H118.619V34.8213H117.619ZM104.963 34.8213H103.963V35.8213H104.963V34.8213ZM104.172 31.5254L103.277 31.9726L103.285 31.9886L103.294 32.0042L104.172 31.5254ZM101.799 29.1963L101.313 30.0704L101.327 30.0784L101.342 30.0859L101.799 29.1963ZM94.0205 29.0645L94.4363 29.9739L94.4469 29.9691L94.4574 29.964L94.0205 29.0645ZM91.6475 30.998L90.82 30.4365L90.8154 30.4433L91.6475 30.998ZM91.2959 35.6123L90.4015 36.0595L90.4151 36.0869L90.4305 36.1133L91.2959 35.6123ZM95.5586 38.4688L95.2129 39.4071L95.2275 39.4125L95.2424 39.4174L95.5586 38.4688ZM99.7773 39.5234L99.9783 38.5438L99.9668 38.5416L99.7773 39.5234ZM108.962 42.292L108.572 43.2127L108.58 43.2163L108.962 42.292ZM115.378 46.8623L114.604 47.4956L114.609 47.5013L115.378 46.8623ZM112.302 64.792L112.893 65.5984L112.902 65.592L112.302 64.792ZM105.974 67.8242L106.251 68.7849L106.259 68.7827L105.974 67.8242ZM86.5059 66.5059L86.045 67.3934L86.0485 67.3951L86.5059 66.5059ZM79.5625 60.4854L78.7167 61.019L78.7243 61.0307L79.5625 60.4854ZM77.2334 52.9268V51.9268H76.2334V52.9268H77.2334ZM89.2305 52.9268L90.2299 52.8929L90.1971 51.9268H89.2305V52.9268ZM90.5488 57.1016L89.7595 57.7155L89.7647 57.7222L89.7701 57.7289L90.5488 57.1016ZM93.7568 59.3867L93.4151 60.3265L93.4218 60.3289L93.7568 59.3867ZM102.106 59.4307L102.482 60.3574L102.493 60.3531L102.503 60.3485L102.106 59.4307ZM104.567 57.585L103.764 56.9897L103.76 56.9949L104.567 57.585ZM106.446 54.8604C106.446 53.7439 106.118 52.7189 105.467 51.8151L103.844 52.9837C104.248 53.5448 104.446 54.1604 104.446 54.8604H106.446ZM105.467 51.8151C104.781 50.8631 103.601 50.0998 102.105 49.4588L101.317 51.2971C102.692 51.8865 103.475 52.4709 103.844 52.9837L105.467 51.8151ZM102.128 49.4689C100.616 48.7761 98.491 48.1721 95.7966 47.6391L95.4085 49.6011C98.0462 50.1228 99.9932 50.6907 101.294 51.287L102.128 49.4689ZM95.8169 47.6434C93.4576 47.1255 91.264 46.4797 89.2344 45.7079L88.5235 47.5773C90.6539 48.3875 92.9427 49.0601 95.3881 49.5969L95.8169 47.6434ZM89.2503 45.7141C87.2683 44.9213 85.5606 43.9805 84.1176 42.8982L82.9176 44.4982C84.5214 45.7011 86.3879 46.7232 88.5075 47.5711L89.2503 45.7141ZM84.125 42.9039C82.7347 41.8407 81.6577 40.598 80.8792 39.1753L79.1247 40.1353C80.0455 41.8181 81.3122 43.2706 82.9101 44.4926L84.125 42.9039ZM80.8829 39.1821C80.1208 37.7631 79.7275 36.1274 79.7275 34.25H77.7275C77.7275 36.4155 78.1838 38.3834 79.121 40.1284L80.8829 39.1821ZM79.7275 34.25C79.7275 32.4053 80.1196 30.6795 80.9023 29.0602L79.1016 28.1898C78.185 30.0862 77.7275 32.1103 77.7275 34.25H79.7275ZM80.8964 29.0722C81.7097 27.4456 82.8655 25.9996 84.3789 24.7339L83.0957 23.1997C81.3864 24.6293 80.052 26.2888 79.1075 28.1778L80.8964 29.0722ZM84.3802 24.7328C85.9088 23.4498 87.7831 22.4378 90.023 21.7098L89.4048 19.8078C86.9571 20.6032 84.8471 21.7299 83.0944 23.2008L84.3802 24.7328ZM90.0301 21.7075C92.2845 20.956 94.8413 20.5723 97.7119 20.5723V18.5723C94.6646 18.5723 91.8894 18.9795 89.3976 19.8101L90.0301 21.7075ZM97.7119 20.5723C101.74 20.5723 105.139 21.2154 107.94 22.4632L108.754 20.6364C105.636 19.2475 101.946 18.5723 97.7119 18.5723V20.5723ZM107.943 22.4647C110.789 23.7205 112.916 25.4267 114.377 27.5633L116.028 26.4347C114.324 23.9424 111.881 22.0159 108.75 20.6349L107.943 22.4647ZM114.385 27.5753C115.871 29.6835 116.619 32.0875 116.619 34.8213H118.619C118.619 31.6957 117.756 28.8849 116.019 26.4228L114.385 27.5753ZM117.619 33.8213H104.963V35.8213H117.619V33.8213ZM105.963 34.8213C105.963 33.4435 105.666 32.1768 105.05 31.0465L103.294 32.0042C103.732 32.8076 103.963 33.7382 103.963 34.8213H105.963ZM105.066 31.0782C104.464 29.8738 103.51 28.9509 102.256 28.3067L101.342 30.0859C102.256 30.555 102.884 31.1848 103.277 31.9726L105.066 31.0782ZM102.284 28.3221C101.033 27.6268 99.4715 27.3174 97.668 27.3174V29.3174C99.2628 29.3174 100.455 29.5939 101.313 30.0704L102.284 28.3221ZM97.668 27.3174C96.145 27.3174 94.7732 27.5871 93.5836 28.1649L94.4574 29.964C95.3186 29.5457 96.3785 29.3174 97.668 29.3174V27.3174ZM93.6048 28.155C92.4362 28.6892 91.493 29.4448 90.82 30.4365L92.4749 31.5595C92.9153 30.9107 93.554 30.3772 94.4363 29.9739L93.6048 28.155ZM90.8154 30.4433C90.1766 31.4016 89.8564 32.4741 89.8564 33.6348H91.8564C91.8564 32.8618 92.0636 32.1766 92.4795 31.5527L90.8154 30.4433ZM89.8564 33.6348C89.8564 34.5039 90.0312 35.3191 90.4015 36.0595L92.1903 35.1651C91.9746 34.7337 91.8564 34.2305 91.8564 33.6348H89.8564ZM90.4305 36.1133C90.8498 36.8376 91.487 37.4543 92.2793 37.9824L93.3887 36.3183C92.7747 35.909 92.3866 35.5003 92.1613 35.1113L90.4305 36.1133ZM92.2793 37.9824C93.068 38.5082 94.0531 38.9798 95.2129 39.4071L95.9043 37.5304C94.8375 37.1374 94.0063 36.7301 93.3887 36.3183L92.2793 37.9824ZM95.2424 39.4174C96.4394 39.8165 97.891 40.1779 99.5879 40.5053L99.9668 38.5416C98.3239 38.2245 96.9629 37.8828 95.8748 37.5201L95.2424 39.4174ZM99.5764 40.503C102.951 41.1953 105.948 42.1004 108.572 43.2127L109.352 41.3713C106.585 40.1984 103.459 39.2578 99.9783 38.5438L99.5764 40.503ZM108.58 43.2163C111.148 44.277 113.143 45.7098 114.604 47.4955L116.152 46.2291C114.449 44.1477 112.166 42.5335 109.344 41.3677L108.58 43.2163ZM114.609 47.5013C116.007 49.1842 116.751 51.4439 116.751 54.377H118.751C118.751 51.0991 117.913 48.349 116.147 46.2233L114.609 47.5013ZM116.751 54.377C116.751 56.3321 116.318 58.1027 115.462 59.7071L117.227 60.6483C118.246 58.7371 118.751 56.6405 118.751 54.377H116.751ZM115.462 59.7071C114.601 61.323 113.355 62.7523 111.702 63.992L112.902 65.592C114.764 64.1949 116.214 62.5481 117.227 60.6483L115.462 59.7071ZM111.71 63.9856C110.06 65.1959 108.058 66.1604 105.688 66.8658L106.259 68.7827C108.811 68.0232 111.028 66.9662 112.893 65.5984L111.71 63.9856ZM105.696 66.8636C103.371 67.5359 100.727 67.8789 97.7559 67.8789V69.8789C100.878 69.8789 103.713 69.5188 106.251 68.7849L105.696 66.8636ZM97.7559 67.8789C93.448 67.8789 89.864 67.1084 86.9632 65.6166L86.0485 67.3951C89.3001 69.0674 93.216 69.8789 97.7559 69.8789V67.8789ZM86.9667 65.6184C84.0448 64.1012 81.8727 62.2024 80.4007 59.94L78.7243 61.0307C80.4164 63.6315 82.8732 65.7464 86.045 67.3934L86.9667 65.6184ZM80.4082 59.9517C78.9429 57.6294 78.2334 55.2925 78.2334 52.9268H76.2334C76.2334 55.7173 77.0766 58.4194 78.7168 61.019L80.4082 59.9517ZM77.2334 53.9268H89.2305V51.9268H77.2334V53.9268ZM88.231 52.9606C88.2947 54.8378 88.7763 56.4514 89.7595 57.7155L91.3382 56.4876C90.6808 55.6424 90.2834 54.4727 90.2299 52.8929L88.231 52.9606ZM89.7701 57.7289C90.7357 58.9276 91.9569 59.7963 93.4151 60.3265L94.0986 58.4469C92.9786 58.0397 92.0612 57.3849 91.3276 56.4742L89.7701 57.7289ZM93.4218 60.3289C94.8569 60.8392 96.3921 61.0898 98.0195 61.0898V59.0898C96.6001 59.0898 95.2935 58.8718 94.0918 58.4445L93.4218 60.3289ZM98.0195 61.0898C99.7409 61.0898 101.241 60.8605 102.482 60.3574L101.731 58.5039C100.804 58.8797 99.5795 59.0898 98.0195 59.0898V61.0898ZM102.503 60.3485C103.71 59.8266 104.69 59.1127 105.375 58.175L103.76 56.9949C103.332 57.5807 102.671 58.0972 101.71 58.5128L102.503 60.3485ZM105.371 58.1802C106.09 57.2094 106.446 56.0905 106.446 54.8604H104.446C104.446 55.681 104.217 56.3785 103.764 56.9897L105.371 58.1802ZM149.26 20.4512H150.26V19.4512H149.26V20.4512ZM149.26 29.416V30.416H150.26V29.416H149.26ZM121.574 29.416H120.574V30.416H121.574V29.416ZM121.574 20.4512V19.4512H120.574V20.4512H121.574ZM128.43 8.71777V7.71777H127.43V8.71777H128.43ZM141.086 8.71777H142.086V7.71777H141.086V8.71777ZM141.613 56.8379L140.712 57.2706L140.719 57.285L140.726 57.2992L141.613 56.8379ZM143.283 58.376L142.912 59.3045L142.928 59.3109L142.944 59.3169L143.283 58.376ZM148.161 58.6836L148.256 59.6791L148.276 59.6772L148.296 59.6744L148.161 58.6836ZM149.787 58.4199L150.787 58.4152L150.781 57.2013L149.591 57.4393L149.787 58.4199ZM149.831 67.7363L150.14 68.6876L150.834 68.4622L150.831 67.7316L149.831 67.7363ZM134.846 67.5166L134.43 68.4261L134.438 68.4296L134.446 68.4331L134.846 67.5166ZM148.26 20.4512V29.416H150.26V20.4512H148.26ZM149.26 28.416H121.574V30.416H149.26V28.416ZM122.574 29.416V20.4512H120.574V29.416H122.574ZM121.574 21.4512H149.26V19.4512H121.574V21.4512ZM128.43 9.71777H141.086V7.71777H128.43V9.71777ZM140.086 8.71777V53.6738H142.086V8.71777H140.086ZM140.086 53.6738C140.086 55.1102 140.265 56.3402 140.712 57.2706L142.515 56.4052C142.258 55.8707 142.086 54.9914 142.086 53.6738H140.086ZM140.726 57.2992C141.212 58.2333 141.946 58.9182 142.912 59.3045L143.655 57.4475C143.156 57.2479 142.776 56.9073 142.501 56.3765L140.726 57.2992ZM142.944 59.3169C143.821 59.6326 144.868 59.7715 146.052 59.7715V57.7715C145.008 57.7715 144.21 57.6467 143.622 57.4351L142.944 59.3169ZM146.052 59.7715C146.866 59.7715 147.602 59.7414 148.256 59.6791L148.066 57.6881C147.49 57.743 146.819 57.7715 146.052 57.7715V59.7715ZM148.296 59.6744C148.953 59.5849 149.517 59.4938 149.983 59.4005L149.591 57.4393C149.179 57.5218 148.658 57.6065 148.026 57.6928L148.296 59.6744ZM148.787 58.4246L148.831 67.741L150.831 67.7316L150.787 58.4152L148.787 58.4246ZM149.523 66.7851C148.492 67.1193 147.37 67.3864 146.155 67.5843L146.476 69.5583C147.78 69.346 149.002 69.0565 150.14 68.6876L149.523 66.7851ZM146.155 67.5843C144.957 67.7792 143.62 67.8789 142.141 67.8789V69.8789C143.708 69.8789 145.154 69.7735 146.476 69.5583L146.155 67.5843ZM142.141 67.8789C139.465 67.8789 137.175 67.4423 135.246 66.6002L134.446 68.4331C136.677 69.4073 139.25 69.8789 142.141 69.8789V67.8789ZM135.261 66.6071C133.415 65.7631 131.992 64.4245 130.978 62.5571L129.221 63.5113C130.434 65.7454 132.175 67.3951 134.43 68.4261L135.261 66.6071ZM130.978 62.5571C129.972 60.7023 129.43 58.1888 129.43 54.9482H127.43C127.43 58.3873 128.001 61.2645 129.221 63.5113L130.978 62.5571ZM129.43 54.9482V8.71777H127.43V54.9482H129.43ZM181.384 32.1846L180.471 32.593L180.475 32.6021L181.384 32.1846ZM179.055 29.5918L178.54 30.4494L178.551 30.4556L179.055 29.5918ZM171.408 29.416L171.824 30.3255L171.835 30.3206L171.845 30.3155L171.408 29.416ZM169.035 31.4814L169.88 32.0165L169.884 32.0103L169.888 32.004L169.035 31.4814ZM168.2 34.6016V35.6016H169.2V34.6016H168.2ZM155.544 34.6016H154.544V35.6016H155.544V34.6016ZM161.037 24.0547L161.647 24.8469L161.656 24.8406L161.037 24.0547ZM167.409 20.7588L167.106 19.8057L167.103 19.8068L167.409 20.7588ZM192.37 26.9551L191.538 27.5098L191.543 27.5166L192.37 26.9551ZM195.358 62.9463L194.377 63.1358L194.377 63.139L195.358 62.9463ZM196.765 67.2529H197.765V67.0169L197.659 66.8057L196.765 67.2529ZM196.765 68V69H197.765V68H196.765ZM183.977 68L183.074 68.4307L183.346 69H183.977V68ZM182.57 63.166L181.581 63.3136L181.583 63.322L181.584 63.3304L182.57 63.166ZM183.801 39.04L184.801 39.0278L184.789 38.04H183.801V39.04ZM183.889 46.2031V47.2031H184.901L184.889 46.1909L183.889 46.2031ZM169.431 48.4004L170.079 49.1616L170.087 49.1548L170.095 49.1478L169.431 48.4004ZM167.673 50.7734L166.751 50.3867L166.745 50.3995L166.74 50.4124L167.673 50.7734ZM167.893 56.7061L167.023 57.1991L167.026 57.2054L167.03 57.2118L167.893 56.7061ZM170.046 58.7275L169.577 59.6107L169.588 59.6164L169.599 59.622L170.046 58.7275ZM181.56 55.4756L180.744 54.8964L180.739 54.9036L180.734 54.9109L181.56 55.4756ZM182.79 52.3115L183.639 51.7828L181.888 48.972L181.79 52.2821L182.79 52.3115ZM186.13 57.6729L187.061 58.0364L187.244 57.5695L186.979 57.1441L186.13 57.6729ZM184.196 61.4082L183.353 60.8713L183.348 60.8782L183.344 60.8852L184.196 61.4082ZM181.164 65.0557L181.835 65.7973L181.845 65.7885L181.164 65.0557ZM176.726 67.8242L177.102 68.7505L177.109 68.7478L177.116 68.745L176.726 67.8242ZM162.355 67.0771L161.904 67.9694L161.91 67.9727L161.917 67.9758L162.355 67.0771ZM156.555 62.0234L155.716 62.5676L155.72 62.5742L155.724 62.5808L156.555 62.0234ZM159.982 43.127L160.57 43.9363L160.572 43.9346L159.982 43.127ZM166.882 40.0947L167.12 41.0661L167.129 41.0636L166.882 40.0947ZM183.131 57.2773V36.0957H181.131V57.2773H183.131ZM183.131 36.0957C183.131 34.4667 182.865 33.013 182.292 31.7671L180.475 32.6021C180.899 33.5241 181.131 34.6779 181.131 36.0957H183.131ZM182.297 31.7762C181.713 30.4719 180.794 29.4485 179.559 28.728L178.551 30.4556C179.425 30.9656 180.058 31.6707 180.471 32.5929L182.297 31.7762ZM179.569 28.7343C178.341 27.9973 176.813 27.6689 175.056 27.6689V29.6689C176.58 29.6689 177.718 29.9558 178.54 30.4493L179.569 28.7343ZM175.056 27.6689C173.533 27.6689 172.161 27.9387 170.971 28.5165L171.845 30.3155C172.706 29.8972 173.766 29.6689 175.056 29.6689V27.6689ZM170.992 28.5065C169.797 29.0529 168.849 29.871 168.183 30.9589L169.888 32.004C170.334 31.2755 170.968 30.7167 171.824 30.3255L170.992 28.5065ZM168.19 30.9464C167.517 32.0089 167.2 33.2409 167.2 34.6016H169.2C169.2 33.5599 169.44 32.7118 169.88 32.0165L168.19 30.9464ZM168.2 33.6016H155.544V35.6016H168.2V33.6016ZM156.544 34.6016C156.544 32.7415 156.974 30.9796 157.839 29.3034L156.062 28.3861C155.052 30.3426 154.544 32.4187 154.544 34.6016H156.544ZM157.839 29.3034C158.702 27.6302 159.964 26.1437 161.647 24.8468L160.427 23.2625C158.536 24.7196 157.073 26.4265 156.062 28.3861L157.839 29.3034ZM161.656 24.8406C163.337 23.5171 165.352 22.4704 167.715 21.7108L167.103 19.8068C164.544 20.6292 162.311 21.7797 160.419 23.2688L161.656 24.8406ZM167.712 21.7119C170.089 20.9569 172.768 20.5723 175.759 20.5723V18.5723C172.598 18.5723 169.71 18.9787 167.106 19.8057L167.712 21.7119ZM175.759 20.5723C179.339 20.5723 182.482 21.1688 185.209 22.3371L185.996 20.4988C182.98 19.2062 179.561 18.5723 175.759 18.5723V20.5723ZM185.209 22.3371C187.912 23.4957 190.011 25.2195 191.538 27.5098L193.202 26.4004C191.448 23.7688 189.035 21.8012 185.996 20.4988L185.209 22.3371ZM191.543 27.5166C193.076 29.7757 193.875 32.6438 193.875 36.1836H195.875C195.875 32.3405 195.004 29.0563 193.198 26.3936L191.543 27.5166ZM193.875 36.1836V56.5303H195.875V36.1836H193.875ZM193.875 56.5303C193.875 59.1715 194.038 61.3797 194.377 63.1358L196.34 62.7568C196.035 61.173 195.875 59.1039 195.875 56.5303H193.875ZM194.377 63.139C194.713 64.8497 195.207 66.374 195.87 67.7001L197.659 66.8057C197.092 65.6709 196.648 64.3241 196.34 62.7535L194.377 63.139ZM195.765 67.2529V68H197.765V67.2529H195.765ZM196.765 67H183.977V69H196.765V67ZM184.879 67.5693C184.316 66.3894 183.869 64.8746 183.557 63.0016L181.584 63.3304C181.916 65.3246 182.407 67.0325 183.074 68.4307L184.879 67.5693ZM183.559 63.0184C183.274 61.1038 183.131 59.1903 183.131 57.2773H181.131C181.131 59.2902 181.281 61.3024 181.581 63.3136L183.559 63.0184ZM182.801 39.0523L182.889 46.2154L184.889 46.1909L184.801 39.0278L182.801 39.0523ZM183.889 45.2031H176.813V47.2031H183.889V45.2031ZM176.813 45.2031C175.071 45.2031 173.517 45.4013 172.167 45.8191L172.759 47.7297C173.87 47.3858 175.216 47.2031 176.813 47.2031V45.2031ZM172.167 45.8191C170.829 46.2332 169.685 46.8368 168.766 47.653L170.095 49.1478C170.759 48.5577 171.635 48.0773 172.759 47.7297L172.167 45.8191ZM168.782 47.6391C167.879 48.4089 167.195 49.326 166.751 50.3867L168.595 51.1602C168.912 50.4045 169.401 49.7396 170.079 49.1616L168.782 47.6391ZM166.74 50.4124C166.339 51.4481 166.146 52.5682 166.146 53.7617H168.146C168.146 52.7873 168.303 51.9152 168.605 51.1344L166.74 50.4124ZM166.146 53.7617C166.146 55.0055 166.433 56.1589 167.023 57.1991L168.763 56.213C168.356 55.4954 168.146 54.6859 168.146 53.7617H166.146ZM167.03 57.2118C167.629 58.2337 168.489 59.0327 169.577 59.6107L170.515 57.8444C169.728 57.4263 169.152 56.8777 168.755 56.2003L167.03 57.2118ZM169.599 59.622C170.7 60.1728 171.958 60.4307 173.342 60.4307V58.4307C172.206 58.4307 171.266 58.2198 170.493 57.8331L169.599 59.622ZM173.342 60.4307C175.381 60.4307 177.206 60.0221 178.784 59.1674L177.831 57.4088C176.597 58.0775 175.111 58.4307 173.342 58.4307V60.4307ZM178.784 59.1674C180.304 58.344 181.518 57.3069 182.385 56.0403L180.734 54.9109C180.077 55.8708 179.124 56.7088 177.831 57.4088L178.784 59.1674ZM182.375 56.0548C183.239 54.8384 183.753 53.5952 183.79 52.3409L181.79 52.2821C181.769 53.02 181.462 53.8862 180.744 54.8964L182.375 56.0548ZM181.941 52.8403L185.281 58.2016L186.979 57.1441L183.639 51.7828L181.941 52.8403ZM185.198 57.3093C184.757 58.4401 184.144 59.6273 183.353 60.8713L185.04 61.9451C185.889 60.611 186.565 59.3079 187.061 58.0364L185.198 57.3093ZM183.344 60.8852C182.605 62.0889 181.655 63.2354 180.484 64.3229L181.845 65.7885C183.134 64.5908 184.205 63.3057 185.049 61.9312L183.344 60.8852ZM180.493 64.3141C179.356 65.3432 177.974 66.209 176.335 66.9035L177.116 68.745C178.934 67.9746 180.511 66.9946 181.835 65.7972L180.493 64.3141ZM176.349 66.8979C174.768 67.5411 172.851 67.8789 170.573 67.8789V69.8789C173.042 69.8789 175.227 69.5136 177.102 68.7505L176.349 66.8979ZM170.573 67.8789C167.692 67.8789 165.105 67.3064 162.794 66.1785L161.917 67.9758C164.528 69.2502 167.419 69.8789 170.573 69.8789V67.8789ZM162.807 66.1849C160.519 65.0271 158.719 63.4542 157.385 61.4661L155.724 62.5808C157.261 64.87 159.329 66.6662 161.904 67.9694L162.807 66.1849ZM157.394 61.4792C156.1 59.4841 155.445 57.2147 155.445 54.6406H153.445C153.445 57.5744 154.197 60.2268 155.716 62.5676L157.394 61.4792ZM155.445 54.6406C155.445 52.2776 155.89 50.2187 156.751 48.4412L154.952 47.5686C153.939 49.6582 153.445 52.0232 153.445 54.6406H155.445ZM156.751 48.4412C157.614 46.6624 158.881 45.1623 160.57 43.9363L159.395 42.3177C157.451 43.7283 155.964 45.4802 154.952 47.5686L156.751 48.4412ZM160.572 43.9346C162.29 42.6801 164.463 41.7161 167.12 41.0661L166.644 39.1234C163.793 39.821 161.366 40.8785 159.393 42.3193L160.572 43.9346ZM167.129 41.0636C169.784 40.3859 172.891 40.04 176.462 40.04V38.04C172.768 38.04 169.488 38.3973 166.634 39.1258L167.129 41.0636ZM176.462 40.04H183.801V38.04H176.462V40.04ZM231.306 4.01562V3.01562H230.306V4.01562H231.306ZM244.445 4.01562H245.445V3.01562H244.445V4.01562ZM241.633 59.3867L242.484 59.9108L242.487 59.9072L241.633 59.3867ZM233.942 66.418L233.492 65.5251L233.489 65.5268L233.942 66.418ZM204.323 60.3096L203.477 60.8426L203.48 60.8464L204.323 60.3096ZM201.555 49.1914V48.1914H200.555V49.1914H201.555ZM214.782 49.1914H215.782V48.1914H214.782V49.1914ZM215.749 54.7725L214.843 55.1964L214.847 55.2042L214.851 55.212L215.749 54.7725ZM230.251 53.9375L229.343 53.5184L229.34 53.5257L229.336 53.533L230.251 53.9375ZM232.306 48.3564V4.01562H230.306V48.3564H232.306ZM231.306 5.01562H244.445V3.01562H231.306V5.01562ZM243.445 4.01562V48.3564H245.445V4.01562H243.445ZM243.445 48.3564C243.445 52.4849 242.542 55.9741 240.779 58.8663L242.487 59.9072C244.474 56.647 245.445 52.7827 245.445 48.3564H243.445ZM240.781 58.8626C239.005 61.7488 236.582 63.9663 233.492 65.5252L234.393 67.3108C237.807 65.5884 240.511 63.1184 242.484 59.9108L240.781 58.8626ZM233.489 65.5268C230.422 67.0878 226.948 67.8789 223.044 67.8789V69.8789C227.226 69.8789 231.017 69.0294 234.396 67.3091L233.489 65.5268ZM223.044 67.8789C218.966 67.8789 215.4 67.1947 212.326 65.853L211.526 67.6861C214.896 69.1569 218.743 69.8789 223.044 69.8789V67.8789ZM212.326 65.853C209.281 64.5244 206.903 62.5012 205.167 59.7727L203.48 60.8464C205.435 63.9187 208.125 66.2022 211.526 67.6861L212.326 65.853ZM205.169 59.7765C203.45 57.0471 202.555 53.5399 202.555 49.1914H200.555C200.555 53.8078 201.505 57.7126 203.477 60.8426L205.169 59.7765ZM201.555 50.1914H214.782V48.1914H201.555V50.1914ZM213.782 49.1914C213.782 51.6101 214.112 53.6344 214.843 55.1964L216.655 54.3485C216.097 53.1566 215.782 51.4602 215.782 49.1914H213.782ZM214.851 55.212C215.611 56.7651 216.716 57.9245 218.176 58.6197L219.035 56.8139C218.034 56.3372 217.235 55.5337 216.647 54.3329L214.851 55.212ZM218.176 58.6197C219.571 59.2843 221.205 59.5957 223.044 59.5957V57.5957C221.426 57.5957 220.101 57.3212 219.035 56.8139L218.176 58.6197ZM223.044 59.5957C224.878 59.5957 226.522 59.1592 227.935 58.2504L226.854 56.568C225.807 57.2412 224.55 57.5957 223.044 57.5957V59.5957ZM227.935 58.2504C229.352 57.3393 230.424 56.0189 231.166 54.342L229.336 53.533C228.73 54.903 227.898 55.897 226.854 56.568L227.935 58.2504ZM231.159 54.3566C231.938 52.6677 232.306 50.6555 232.306 48.3564H230.306C230.306 50.4519 229.97 52.1604 229.343 53.5184L231.159 54.3566ZM254.377 34.1621L255.324 34.484L255.325 34.4812L254.377 34.1621ZM265.759 21.418L266.155 22.3361L266.163 22.3326L265.759 21.418ZM284.963 21.418L284.562 22.3342L284.57 22.3376L284.963 21.418ZM292.038 26.4717L291.287 27.1316L291.292 27.1373L292.038 26.4717ZM296.433 34.1621L295.485 34.4812L295.486 34.484L296.433 34.1621ZM296.433 54.333L297.379 54.6549L297.38 54.652L296.433 54.333ZM292.038 62.0234L291.287 61.3628L291.287 61.3635L292.038 62.0234ZM265.803 67.0771L265.406 67.9953L265.41 67.9968L265.803 67.0771ZM258.728 62.0234L257.972 62.6784L257.977 62.6837L257.981 62.689L258.728 62.0234ZM254.377 54.333L253.429 54.6521L253.43 54.6549L254.377 54.333ZM267.736 54.8604L266.87 55.3606L266.877 55.3721L266.884 55.3834L267.736 54.8604ZM282.985 54.8604L283.846 55.3691L283.851 55.3606L282.985 54.8604ZM284.655 50.29L283.679 50.0749L283.677 50.0828L283.675 50.0907L284.655 50.29ZM284.655 38.3369L283.675 38.5362L283.677 38.5459L283.679 38.5556L284.655 38.3369ZM282.941 33.7666L282.071 34.2587L282.077 34.27L282.084 34.2811L282.941 33.7666ZM270.769 30.6025L270.251 29.7468L270.242 29.7523L270.769 30.6025ZM267.736 33.7666L266.874 33.2604L266.87 33.2663L267.736 33.7666ZM266.066 38.3369L267.046 38.5395L267.046 38.5362L266.066 38.3369ZM253.883 44.709V43.7861H251.883V44.709H253.883ZM253.883 43.7861C253.883 40.3956 254.367 37.2978 255.324 34.484L253.43 33.8402C252.395 36.8858 251.883 40.204 251.883 43.7861H253.883ZM255.325 34.4812C256.282 31.6373 257.669 29.1922 259.479 27.1316L257.976 25.8117C255.978 28.0871 254.464 30.7689 253.429 33.8431L255.325 34.4812ZM259.479 27.1316C261.28 25.0806 263.501 23.4816 266.155 22.3361L265.363 20.4998C262.45 21.7567 259.983 23.5268 257.976 25.8117L259.479 27.1316ZM266.163 22.3326C268.798 21.1678 271.849 20.5723 275.339 20.5723V18.5723C271.621 18.5723 268.286 19.2072 265.354 20.5034L266.163 22.3326ZM275.339 20.5723C278.828 20.5723 281.896 21.1677 284.562 22.3341L285.364 20.5018C282.405 19.2073 279.057 18.5723 275.339 18.5723V20.5723ZM284.57 22.3376C287.254 23.4837 289.487 25.0826 291.287 27.1316L292.789 25.8117C290.781 23.5248 288.297 21.7546 285.356 20.4983L284.57 22.3376ZM291.292 27.1373C293.129 29.1972 294.529 31.6404 295.485 34.4812L297.38 33.8431C296.344 30.7658 294.814 28.0821 292.784 25.8061L291.292 27.1373ZM295.486 34.484C296.443 37.2978 296.927 40.3956 296.927 43.7861H298.927C298.927 40.204 298.415 36.8858 297.379 33.8402L295.486 34.484ZM296.927 43.7861V44.709H298.927V43.7861H296.927ZM296.927 44.709C296.927 48.0691 296.443 51.1682 295.485 54.014L297.38 54.652C298.415 51.5798 298.927 48.2629 298.927 44.709H296.927ZM295.486 54.0111C294.53 56.8233 293.129 59.27 291.287 61.3628L292.789 62.6841C294.814 60.3823 296.343 57.7021 297.379 54.6549L295.486 54.0111ZM291.287 61.3635C289.485 63.4145 287.265 65.0135 284.611 66.159L285.403 67.9953C288.315 66.7385 290.782 64.9683 292.789 62.6834L291.287 61.3635ZM284.611 66.159C281.974 67.297 278.919 67.8789 275.427 67.8789V69.8789C279.141 69.8789 282.473 69.2597 285.403 67.9953L284.611 66.159ZM275.427 67.8789C271.935 67.8789 268.864 67.2971 266.195 66.1575L265.41 67.9968C268.367 69.2596 271.712 69.8789 275.427 69.8789V67.8789ZM266.199 66.159C263.543 65.013 261.306 63.4124 259.474 61.3578L257.981 62.689C260.016 64.9704 262.496 66.739 265.406 67.9953L266.199 66.159ZM259.483 61.3685C257.669 59.275 256.281 56.8264 255.324 54.0111L253.43 54.6549C254.465 57.699 255.978 60.3773 257.972 62.6784L259.483 61.3685ZM255.325 54.014C254.367 51.1682 253.883 48.0691 253.883 44.709H251.883C251.883 48.2629 252.395 51.5798 253.429 54.652L255.325 54.014ZM264.539 43.7861V44.709H266.539V43.7861H264.539ZM264.539 44.709C264.539 46.7597 264.72 48.6874 265.086 50.4893L267.046 50.0907C266.71 48.4356 266.539 46.6427 266.539 44.709H264.539ZM265.086 50.4893C265.456 52.3073 266.047 53.9353 266.87 55.3606L268.602 54.3601C267.902 53.1487 267.38 51.7299 267.046 50.0907L265.086 50.4893ZM266.884 55.3834C267.758 56.8079 268.902 57.9383 270.31 58.7571L271.315 57.0281C270.204 56.382 269.297 55.4909 268.589 54.3373L266.884 55.3834ZM270.31 58.7571C271.756 59.5976 273.477 59.9912 275.427 59.9912V57.9912C273.744 57.9912 272.389 57.6524 271.315 57.0281L270.31 58.7571ZM275.427 59.9912C277.325 59.9912 279.015 59.5949 280.456 58.7571L279.451 57.0281C278.372 57.6551 277.044 57.9912 275.427 57.9912V59.9912ZM280.456 58.7571C281.868 57.9362 283 56.8012 283.846 55.3691L282.124 54.3516C281.447 55.4976 280.558 56.3841 279.451 57.0281L280.456 58.7571ZM283.851 55.3606C284.675 53.9353 285.265 52.3073 285.635 50.4893L283.675 50.0907C283.342 51.7299 282.819 53.1487 282.119 54.3601L283.851 55.3606ZM285.632 50.5052C286.03 48.6979 286.227 46.7647 286.227 44.709H284.227C284.227 46.6377 284.042 48.4252 283.679 50.0749L285.632 50.5052ZM286.227 44.709V43.7861H284.227V44.709H286.227ZM286.227 43.7861C286.227 41.7869 286.03 39.8966 285.631 38.1182L283.679 38.5556C284.043 40.1757 284.227 41.9181 284.227 43.7861H286.227ZM285.635 38.1376C285.264 36.314 284.656 34.681 283.799 33.2521L282.084 34.2811C282.809 35.4889 283.343 36.9028 283.675 38.5362L285.635 38.1376ZM283.812 33.2745C282.97 31.7853 281.841 30.602 280.427 29.7468L279.392 31.4583C280.497 32.1265 281.389 33.0525 282.071 34.2587L283.812 33.2745ZM280.427 29.7468C278.98 28.8724 277.269 28.46 275.339 28.46V30.46C276.983 30.46 278.318 30.8093 279.392 31.4583L280.427 29.7468ZM275.339 28.46C273.408 28.46 271.697 28.8724 270.251 29.7468L271.286 31.4583C272.359 30.8093 273.695 30.46 275.339 30.46V28.46ZM270.242 29.7523C268.862 30.6064 267.741 31.7839 266.874 33.2604L268.599 34.2728C269.314 33.054 270.214 32.1221 271.295 31.4528L270.242 29.7523ZM266.87 33.2663C266.047 34.6917 265.456 36.3197 265.086 38.1376L267.046 38.5362C267.38 36.8971 267.902 35.4782 268.602 34.2669L266.87 33.2663ZM265.087 38.1343C264.72 39.9072 264.539 41.7921 264.539 43.7861H266.539C266.539 41.913 266.709 40.165 267.046 38.5395L265.087 38.1343ZM305.705 0.5V-0.5H304.705V0.5H305.705ZM318.361 0.5H319.361V-0.5H318.361V0.5ZM318.361 57.1016L319.355 57.2177L319.361 57.1598V57.1016H318.361ZM317.087 68V69H317.977L318.08 68.1161L317.087 68ZM305.705 68H304.705V69H305.705V68ZM347.321 54.4209L346.353 54.1716L346.351 54.1806L347.321 54.4209ZM343.894 62.1113L344.703 62.6989L344.707 62.6936L343.894 62.1113ZM338.093 67.1211L338.549 68.0109L338.553 68.0087L338.093 67.1211ZM322.448 67.1211L321.963 67.9953L321.968 67.9981L322.448 67.1211ZM311.682 45.2363H310.682V45.3007L310.69 45.3646L311.682 45.2363ZM311.682 43.2148L310.69 43.0866L310.682 43.1505V43.2148H311.682ZM338.093 21.374L337.632 22.2616L337.639 22.2651L337.646 22.2685L338.093 21.374ZM343.894 26.3838L343.075 26.9587L343.08 26.9651L343.084 26.9713L343.894 26.3838ZM347.321 34.0303L346.351 34.2706L346.353 34.2819L347.321 34.0303ZM335.368 38.293L334.38 38.4438L334.381 38.4533L334.383 38.4629L335.368 38.293ZM333.962 33.7666L333.071 34.2217L333.076 34.2299L333.962 33.7666ZM331.193 30.6465L330.639 31.4786L330.648 31.4849L331.193 30.6465ZM319.372 32.8438L318.572 32.2438L318.567 32.251L318.561 32.2583L319.372 32.8438ZM317.658 36.623L318.625 36.8795L318.626 36.8747L317.658 36.623ZM316.955 41.3691L315.956 41.3184L315.955 41.3437V41.3691H316.955ZM316.955 47.126H315.955V47.145L315.956 47.1639L316.955 47.126ZM318.098 53.2783L317.162 53.6311L317.165 53.6405L317.169 53.6497L318.098 53.2783ZM321.262 57.4531L320.673 58.2611L320.682 58.268L320.692 58.2747L321.262 57.4531ZM334.006 54.9043L333.12 54.441L333.115 54.449L333.111 54.4571L334.006 54.9043ZM335.412 50.3779L336.401 50.5287L336.401 50.5263L335.412 50.3779ZM305.705 1.5H318.361V-0.5H305.705V1.5ZM317.361 0.5V57.1016H319.361V0.5H317.361ZM317.368 56.9854L316.094 67.8839L318.08 68.1161L319.355 57.2177L317.368 56.9854ZM317.087 67H305.705V69H317.087V67ZM306.705 68V0.5H304.705V68H306.705ZM347.464 43.7422V44.665H349.464V43.7422H347.464ZM347.464 44.665C347.464 48.139 347.091 51.3058 346.353 54.1716L348.29 54.6702C349.075 51.618 349.464 48.281 349.464 44.665H347.464ZM346.351 54.1806C345.644 57.0341 344.55 59.4777 343.081 61.5291L344.707 62.6936C346.343 60.409 347.533 57.7257 348.292 54.6612L346.351 54.1806ZM343.084 61.5238C341.622 63.5385 339.807 65.1049 337.632 66.2335L338.553 68.0087C341.008 66.7349 343.06 64.9615 344.703 62.6988L343.084 61.5238ZM337.636 66.2313C335.519 67.3171 332.986 67.8789 330.007 67.8789V69.8789C333.238 69.8789 336.096 69.2688 338.549 68.0109L337.636 66.2313ZM330.007 67.8789C327.243 67.8789 324.895 67.3213 322.929 66.2441L321.968 67.9981C324.279 69.2647 326.97 69.8789 330.007 69.8789V67.8789ZM322.934 66.2469C320.972 65.1571 319.315 63.6143 317.961 61.598L316.301 62.7126C317.818 64.9736 319.706 66.7414 321.963 67.9953L322.934 66.2469ZM317.961 61.598C316.589 59.553 315.47 57.1403 314.615 54.3479L312.703 54.9333C313.606 57.8832 314.802 60.4802 316.301 62.7126L317.961 61.598ZM314.615 54.3479C313.755 51.5374 313.107 48.4584 312.673 45.1081L310.69 45.3646C311.136 48.8111 311.806 52.0016 312.703 54.9333L314.615 54.3479ZM312.682 45.2363V43.2148H310.682V45.2363H312.682ZM312.673 43.3431C313.107 39.9927 313.755 36.9137 314.615 34.1033L312.703 33.5178C311.806 36.4495 311.136 39.6401 310.69 43.0866L312.673 43.3431ZM314.615 34.1033C315.47 31.3109 316.589 28.8982 317.961 26.8532L316.301 25.7386C314.802 27.971 313.606 30.568 312.703 33.5178L314.615 34.1033ZM317.961 26.8532C319.315 24.8369 320.972 23.2941 322.934 22.2042L321.963 20.4559C319.706 21.7098 317.818 23.4776 316.301 25.7386L317.961 26.8532ZM322.934 22.2042C324.869 21.1293 327.186 20.5723 329.919 20.5723V18.5723C326.91 18.5723 324.246 19.1871 321.963 20.4559L322.934 22.2042ZM329.919 20.5723C332.926 20.5723 335.486 21.1478 337.632 22.2616L338.553 20.4864C336.071 19.1979 333.182 18.5723 329.919 18.5723V20.5723ZM337.646 22.2685C339.839 23.3654 341.646 24.9248 343.075 26.9587L344.712 25.8088C343.094 23.5069 341.034 21.7264 338.54 20.4796L337.646 22.2685ZM343.084 26.9713C344.551 28.991 345.644 31.4177 346.351 34.2705L348.292 33.79C347.533 30.7249 346.342 28.0539 344.703 25.7963L343.084 26.9713ZM346.353 34.2819C347.091 37.1168 347.464 40.2681 347.464 43.7422H349.464C349.464 40.1264 349.075 36.8031 348.289 33.7786L346.353 34.2819ZM336.808 44.665V43.7422H334.808V44.665H336.808ZM336.808 43.7422C336.808 41.7584 336.657 39.8847 336.354 38.1231L334.383 38.4629C334.665 40.0997 334.808 41.8588 334.808 43.7422H336.808ZM336.357 38.1422C336.08 36.3259 335.582 34.7077 334.848 33.3033L333.076 34.2299C333.689 35.4036 334.129 36.803 334.38 38.4438L336.357 38.1422ZM334.852 33.3115C334.104 31.8469 333.066 30.6708 331.738 29.808L330.648 31.4849C331.665 32.1456 332.472 33.0496 333.071 34.2217L334.852 33.3115ZM331.748 29.8144C330.396 28.913 328.706 28.5039 326.755 28.5039V30.5039C328.436 30.5039 329.706 30.8566 330.639 31.4785L331.748 29.8144ZM326.755 28.5039C324.917 28.5039 323.294 28.8149 321.922 29.484L322.799 31.2816C323.829 30.7788 325.135 30.5039 326.755 30.5039V28.5039ZM321.922 29.484C320.58 30.1385 319.46 31.0604 318.572 32.2438L320.172 33.4437C320.867 32.5177 321.738 31.799 322.799 31.2816L321.922 29.484ZM318.561 32.2583C317.716 33.4285 317.097 34.8058 316.69 36.3714L318.626 36.8747C318.981 35.5106 319.505 34.3684 320.183 33.4292L318.561 32.2583ZM316.692 36.3666C316.29 37.8794 316.047 39.5315 315.956 41.3184L317.954 41.4199C318.039 39.7498 318.264 38.2378 318.625 36.8795L316.692 36.3666ZM315.955 41.3691V47.126H317.955V41.3691H315.955ZM315.956 47.1639C316.047 49.5639 316.443 51.7244 317.162 53.6311L319.033 52.9255C318.405 51.2581 318.039 49.3169 317.954 47.088L315.956 47.1639ZM317.169 53.6497C317.936 55.5661 319.101 57.1153 320.673 58.2611L321.851 56.6451C320.61 55.7402 319.666 54.5061 319.026 52.9069L317.169 53.6497ZM320.692 58.2747C322.339 59.418 324.416 59.9473 326.843 59.9473V57.9473C324.699 57.9473 323.055 57.4805 321.832 56.6315L320.692 58.2747ZM326.843 59.9473C328.757 59.9473 330.428 59.571 331.796 58.7501L330.767 57.0351C329.791 57.6204 328.503 57.9473 326.843 57.9473V59.9473ZM331.796 58.7501C333.14 57.9436 334.176 56.8009 334.9 55.3515L333.111 54.4571C332.547 55.5858 331.766 56.4353 330.767 57.0351L331.796 58.7501ZM334.892 55.3676C335.626 53.9632 336.124 52.345 336.401 50.5287L334.424 50.2271C334.173 51.8679 333.733 53.2673 333.12 54.441L334.892 55.3676ZM336.401 50.5263C336.673 48.7126 336.808 46.7581 336.808 44.665H334.808C334.808 46.6735 334.678 48.5277 334.423 50.2296L336.401 50.5263ZM378.303 50.3779L377.886 51.287L377.897 51.2922L377.909 51.2971L378.303 50.3779ZM372.194 48.6201L371.98 49.5969L371.99 49.5991L372 49.6011L372.194 48.6201ZM365.471 46.6426L365.099 47.5711L365.107 47.5742L365.115 47.5773L365.471 46.6426ZM360.109 43.6982L359.502 44.4926L359.509 44.4982L360.109 43.6982ZM356.594 39.6553L355.713 40.1284L355.716 40.1353L356.594 39.6553ZM356.594 28.625L355.699 28.1777L355.693 28.1898L356.594 28.625ZM360.329 23.9668L360.971 24.7339L360.972 24.7328L360.329 23.9668ZM366.306 20.7588L366.615 21.7099L366.622 21.7075L366.306 20.7588ZM384.938 21.5498L384.531 22.4632L384.535 22.4647L384.938 21.5498ZM391.794 26.999L390.968 27.5633L390.973 27.5693L390.977 27.5753L391.794 26.999ZM394.211 34.8213V35.8213H395.211V34.8213H394.211ZM381.555 34.8213H380.555V35.8213H381.555V34.8213ZM380.764 31.5254L379.869 31.9726L379.877 31.9886L379.886 32.0042L380.764 31.5254ZM378.391 29.1963L377.905 30.0704L377.919 30.0784L377.934 30.0859L378.391 29.1963ZM370.612 29.0645L371.028 29.9739L371.039 29.9691L371.049 29.964L370.612 29.0645ZM368.239 30.998L367.412 30.4365L367.407 30.4433L368.239 30.998ZM367.888 35.6123L366.993 36.0595L367.007 36.0869L367.022 36.1133L367.888 35.6123ZM372.15 38.4688L371.805 39.4071L371.819 39.4125L371.834 39.4174L372.15 38.4688ZM376.369 39.5234L376.57 38.5438L376.559 38.5416L376.369 39.5234ZM385.554 42.292L385.163 43.2127L385.172 43.2163L385.554 42.292ZM391.97 46.8623L391.196 47.4956L391.201 47.5013L391.97 46.8623ZM388.894 64.792L389.485 65.5984L389.494 65.592L388.894 64.792ZM382.565 67.8242L382.843 68.7849L382.851 68.7827L382.565 67.8242ZM363.098 66.5059L362.637 67.3934L362.64 67.3951L363.098 66.5059ZM356.154 60.4854L355.308 61.019L355.316 61.0307L356.154 60.4854ZM353.825 52.9268V51.9268H352.825V52.9268H353.825ZM365.822 52.9268L366.822 52.8929L366.789 51.9268H365.822V52.9268ZM367.141 57.1016L366.351 57.7155L366.357 57.7222L366.362 57.7289L367.141 57.1016ZM370.349 59.3867L370.007 60.3265L370.014 60.3289L370.349 59.3867ZM378.698 59.4307L379.074 60.3574L379.085 60.3531L379.095 60.3485L378.698 59.4307ZM381.159 57.585L380.356 56.9897L380.352 56.9949L381.159 57.585ZM383.038 54.8604C383.038 53.7439 382.709 52.7189 382.059 51.8151L380.436 52.9837C380.84 53.5448 381.038 54.1604 381.038 54.8604H383.038ZM382.059 51.8151C381.373 50.8631 380.192 50.0998 378.697 49.4588L377.909 51.2971C379.284 51.8865 380.066 52.4709 380.436 52.9837L382.059 51.8151ZM378.719 49.4689C377.208 48.7761 375.083 48.1721 372.388 47.6391L372 49.6011C374.638 50.1228 376.585 50.6907 377.886 51.287L378.719 49.4689ZM372.409 47.6434C370.049 47.1255 367.856 46.4797 365.826 45.7079L365.115 47.5773C367.246 48.3875 369.535 49.0601 371.98 49.5969L372.409 47.6434ZM365.842 45.7141C363.86 44.9213 362.152 43.9805 360.709 42.8982L359.509 44.4982C361.113 45.7011 362.98 46.7232 365.099 47.5711L365.842 45.7141ZM360.717 42.9039C359.327 41.8407 358.249 40.598 357.471 39.1753L355.716 40.1353C356.637 41.8181 357.904 43.2706 359.502 44.4926L360.717 42.9039ZM357.475 39.1821C356.713 37.7631 356.319 36.1274 356.319 34.25H354.319C354.319 36.4155 354.776 38.3834 355.713 40.1284L357.475 39.1821ZM356.319 34.25C356.319 32.4053 356.711 30.6795 357.494 29.0602L355.693 28.1898C354.777 30.0862 354.319 32.1103 354.319 34.25H356.319ZM357.488 29.0722C358.302 27.4456 359.457 25.9996 360.971 24.7339L359.688 23.1997C357.978 24.6293 356.644 26.2888 355.699 28.1778L357.488 29.0722ZM360.972 24.7328C362.501 23.4498 364.375 22.4378 366.615 21.7098L365.997 19.8078C363.549 20.6032 361.439 21.7299 359.686 23.2008L360.972 24.7328ZM366.622 21.7075C368.876 20.956 371.433 20.5723 374.304 20.5723V18.5723C371.256 18.5723 368.481 18.9795 365.989 19.8101L366.622 21.7075ZM374.304 20.5723C378.332 20.5723 381.731 21.2154 384.531 22.4632L385.345 20.6364C382.228 19.2475 378.538 18.5723 374.304 18.5723V20.5723ZM384.535 22.4647C387.381 23.7205 389.508 25.4267 390.968 27.5633L392.62 26.4347C390.916 23.9424 388.472 22.0159 385.342 20.6349L384.535 22.4647ZM390.977 27.5753C392.463 29.6835 393.211 32.0875 393.211 34.8213H395.211C395.211 31.6957 394.347 28.8849 392.611 26.4228L390.977 27.5753ZM394.211 33.8213H381.555V35.8213H394.211V33.8213ZM382.555 34.8213C382.555 33.4435 382.258 32.1768 381.642 31.0465L379.886 32.0042C380.324 32.8076 380.555 33.7382 380.555 34.8213H382.555ZM381.658 31.0782C381.056 29.8738 380.102 28.9509 378.847 28.3067L377.934 30.0859C378.847 30.555 379.475 31.1848 379.869 31.9726L381.658 31.0782ZM378.876 28.3221C377.625 27.6268 376.063 27.3174 374.26 27.3174V29.3174C375.855 29.3174 377.047 29.5939 377.905 30.0704L378.876 28.3221ZM374.26 27.3174C372.737 27.3174 371.365 27.5871 370.175 28.1649L371.049 29.964C371.91 29.5457 372.97 29.3174 374.26 29.3174V27.3174ZM370.197 28.155C369.028 28.6892 368.085 29.4448 367.412 30.4365L369.067 31.5595C369.507 30.9107 370.146 30.3772 371.028 29.9739L370.197 28.155ZM367.407 30.4433C366.768 31.4016 366.448 32.4741 366.448 33.6348H368.448C368.448 32.8618 368.655 32.1766 369.071 31.5527L367.407 30.4433ZM366.448 33.6348C366.448 34.5039 366.623 35.3191 366.993 36.0595L368.782 35.1651C368.566 34.7337 368.448 34.2305 368.448 33.6348H366.448ZM367.022 36.1133C367.442 36.8376 368.079 37.4543 368.871 37.9824L369.98 36.3183C369.367 35.909 368.978 35.5003 368.753 35.1113L367.022 36.1133ZM368.871 37.9824C369.66 38.5082 370.645 38.9798 371.805 39.4071L372.496 37.5304C371.429 37.1374 370.598 36.7301 369.98 36.3183L368.871 37.9824ZM371.834 39.4174C373.031 39.8165 374.483 40.1779 376.18 40.5053L376.559 38.5416C374.916 38.2245 373.555 37.8828 372.467 37.5201L371.834 39.4174ZM376.168 40.503C379.543 41.1953 382.54 42.1004 385.163 43.2127L385.944 41.3713C383.177 40.1984 380.051 39.2578 376.57 38.5438L376.168 40.503ZM385.172 43.2163C387.74 44.277 389.735 45.7098 391.196 47.4955L392.744 46.2291C391.041 44.1477 388.758 42.5335 385.935 41.3677L385.172 43.2163ZM391.201 47.5013C392.599 49.1842 393.343 51.4439 393.343 54.377H395.343C395.343 51.0991 394.505 48.349 392.739 46.2233L391.201 47.5013ZM393.343 54.377C393.343 56.3321 392.91 58.1027 392.054 59.7071L393.819 60.6483C394.838 58.7371 395.343 56.6405 395.343 54.377H393.343ZM392.054 59.7071C391.192 61.323 389.946 62.7523 388.294 63.992L389.494 65.592C391.356 64.1949 392.806 62.5481 393.819 60.6483L392.054 59.7071ZM388.302 63.9856C386.652 65.1959 384.65 66.1604 382.28 66.8658L382.851 68.7827C385.402 68.0232 387.62 66.9662 389.485 65.5984L388.302 63.9856ZM382.288 66.8636C379.962 67.5359 377.319 67.8789 374.348 67.8789V69.8789C377.47 69.8789 380.305 69.5188 382.843 68.7849L382.288 66.8636ZM374.348 67.8789C370.04 67.8789 366.456 67.1084 363.555 65.6166L362.64 67.3951C365.892 69.0674 369.808 69.8789 374.348 69.8789V67.8789ZM363.558 65.6184C360.637 64.1012 358.464 62.2024 356.993 59.94L355.316 61.0307C357.008 63.6315 359.465 65.7464 362.637 67.3934L363.558 65.6184ZM357 59.9517C355.535 57.6294 354.825 55.2925 354.825 52.9268H352.825C352.825 55.7173 353.668 58.4194 355.309 61.019L357 59.9517ZM353.825 53.9268H365.822V51.9268H353.825V53.9268ZM364.823 52.9606C364.886 54.8378 365.368 56.4514 366.351 57.7155L367.93 56.4876C367.273 55.6424 366.875 54.4727 366.822 52.8929L364.823 52.9606ZM366.362 57.7289C367.327 58.9276 368.549 59.7963 370.007 60.3265L370.69 58.4469C369.57 58.0397 368.653 57.3849 367.919 56.4742L366.362 57.7289ZM370.014 60.3289C371.449 60.8392 372.984 61.0898 374.611 61.0898V59.0898C373.192 59.0898 371.885 58.8718 370.684 58.4445L370.014 60.3289ZM374.611 61.0898C376.333 61.0898 377.833 60.8605 379.074 60.3574L378.323 58.5039C377.396 58.8797 376.171 59.0898 374.611 59.0898V61.0898ZM379.095 60.3485C380.302 59.8266 381.281 59.1127 381.967 58.175L380.352 56.9949C379.924 57.5807 379.262 58.0972 378.301 58.5128L379.095 60.3485ZM381.963 58.1802C382.682 57.2094 383.038 56.0905 383.038 54.8604H381.038C381.038 55.681 380.808 56.3785 380.356 56.9897L381.963 58.1802Z" fill="black"/>
</g>
<defs>
<filter id="filter0_d_19_357" x="0.591797" y="0.5" width="397.751" height="76.3789" filterUnits="userSpaceOnUse" color-interpolation-filters="sRGB">
<feFlood flood-opacity="0" result="BackgroundImageFix"/>
<feColorMatrix in="SourceAlpha" type="matrix" values="0 0 0 0 0 0 0 0 0 0 0 0 0 0 0 0 0 0 127 0" result="hardAlpha"/>
<feOffset dy="4"/>
<feGaussianBlur stdDeviation="2"/>
<feComposite in2="hardAlpha" operator="out"/>
<feColorMatrix type="matrix" values="0 0 0 0 0 0 0 0 0 0 0 0 0 0 0 0 0 0 0.25 0"/>
<feBlend mode="normal" in2="BackgroundImageFix" result="effect1_dropShadow_19_357"/>
<feBlend mode="normal" in="SourceGraphic" in2="effect1_dropShadow_19_357" result="shape"/>
</filter>
</defs>
</svg>
